<svg width="128" height="128" viewBox="0 0 128 128" fill="none" xmlns="http://www.w3.org/2000/svg">
<path d="M49.2842 30.6667V96.4983L28.6102 85.4259L28.4996 85.3667H28.3741H26.9022C24.9019 85.3667 22.9592 86.1493 21.586 87.6582L16.6401 92.7862L16.2714 93.1686L16.6753 93.5135L49.4381 121.495C51.2748 123.454 53.8094 124.5 56.4748 124.5H99.964H99.9731L99.9822 124.5C105.729 124.29 110.289 119.748 110.5 114.018L110.5 114.009V114V84.9333C110.5 80.8823 108.255 77.1633 104.519 75.4776L104.515 75.476L71.4632 60.876L71.3919 60.8445L71.3144 60.8362L63.6655 60.0173V30.6667C63.6655 28.7654 62.9074 26.9423 61.5587 25.5984C60.2101 24.2546 58.3813 23.5 56.4748 23.5C54.5683 23.5 52.7395 24.2546 51.3909 25.5984C50.0422 26.9423 49.2842 28.7654 49.2842 30.6667ZM69.3561 53.7333V54.5961L70.1047 54.1672C78.2817 49.4823 83.7374 40.8541 83.7374 30.6667C83.7374 23.461 80.8647 16.5509 75.7518 11.4563C70.6389 6.36176 63.7047 3.5 56.4748 3.5C49.2449 3.5 42.3108 6.36176 37.1979 11.4563C32.085 16.5509 29.2122 23.461 29.2122 30.6667C29.2122 40.8541 34.668 49.4823 42.845 54.1672L43.5935 54.5961V53.7333V45.6V45.3771L43.4277 45.2281C39.446 41.6509 36.9029 36.4503 36.9029 30.6667C36.9029 25.4955 38.9645 20.5358 42.6347 16.8787C46.305 13.2216 51.2834 11.1667 56.4748 11.1667C61.6662 11.1667 66.6446 13.2216 70.3149 16.8787C73.9852 20.5358 76.0468 25.4955 76.0468 30.6667C76.0468 36.4503 73.5036 41.6509 69.522 45.2281L69.3561 45.3771V45.6V53.7333Z" fill="#0090FF" stroke="black"/>
<path d="M73.647 99.3453C73.9286 99.2109 74.2337 99.134 74.5448 99.119C74.8559 99.104 75.1669 99.1512 75.4598 99.2579C75.7528 99.3646 76.022 99.5287 76.2519 99.7407C76.4818 99.9527 76.6679 100.208 76.7995 100.493L82.2511 112.428L86.5176 110.395L81.0423 98.4844C80.4734 97.2885 80.9949 95.8536 82.18 95.3035L82.8437 95.1121L88.2954 94.0359L68.7406 77.4619V103.244L73.0545 99.728L73.647 99.3453ZM82.1089 117.761C81.8292 117.898 81.5252 117.978 81.2145 117.996C80.9039 118.014 80.5929 117.969 80.2995 117.865C80.0061 117.76 79.7363 117.598 79.5058 117.387C79.2752 117.176 79.0885 116.921 78.9565 116.637L73.7892 105.301L67.8399 110.132C67.4369 110.466 66.9391 110.658 66.3703 110.658C65.7416 110.658 65.1388 110.406 64.6942 109.957C64.2497 109.509 64 108.9 64 108.266V72.3916C64 71.7573 64.2497 71.149 64.6942 70.7005C65.1388 70.252 65.7416 70 66.3703 70C66.9391 70 67.4843 70.2152 67.8873 70.5501L67.911 70.5262L95.1455 93.5815C95.4889 93.8701 95.7447 94.2506 95.8832 94.6794C96.0217 95.1082 96.0374 95.5677 95.9284 96.0051C95.8194 96.4425 95.5902 96.8399 95.2672 97.1516C94.9441 97.4633 94.5404 97.6765 94.1025 97.7669L86.6125 99.2497L91.8271 110.562C92.4433 111.758 91.8745 113.169 90.6893 113.719L82.1089 117.761Z" fill="#E8E8E8"/>
</svg>
